<?xml version="1.0" encoding="iso-8859-1"?>
<!-- Generator: Adobe Illustrator 16.0.0, SVG Export Plug-In . SVG Version: 6.00 Build 0)  -->
<!DOCTYPE svg PUBLIC "-//W3C//DTD SVG 1.1//EN" "http://www.w3.org/Graphics/SVG/1.1/DTD/svg11.dtd">
<svg version="1.1" id="Capa_1" xmlns="http://www.w3.org/2000/svg" xmlns:xlink="http://www.w3.org/1999/xlink" x="0px" y="0px"
	 width="222.504px" height="222.504px" viewBox="0 0 222.504 222.504" style="enable-background:new 0 0 222.504 222.504;"
	 xml:space="preserve">
<g>
	<path d="M178.083,27.119C165.618,13.202,149.15,0.287,108.448,0.003c-15.9-0.127-40.184,3.635-59.075,23.611
		C37.942,35.677,29.528,50.918,31.925,75.829c0.52,5.406,8.237,11.659,2.813,22.091c0,0-11.65,20.502-11.239,23.912
		c0,0-0.207,6.236,9.442,6.432c0,0,2.403,0.312,1.714,5.627l-0.116,7.748c0,0,0.308,2.306,4.528,3.707c0,0,0.804,0.804-0.396,2.322
		c0,0-2.219,2.477,1.605,7.832c1.416,1.95,3.718,4.409,2.32,9.457c0,0-1.818,9.729,2.006,12.059c0,0,4.342,5.153,21.802,2.996
		c6.115-0.75,17.389-3.706,24.116,4.734c0,0,16.062,30.535,17.286,37.758c0,0,27.417-48.822,60.896-56.358
		c0,0-8.163-18.389,8.429-42.203c0,0,20.794-27.432,21.409-42.501C198.523,81.441,204.02,56.049,178.083,27.119z M59.688,76.373
		l39.815-39.7L89.339,26.495l36.812-2.938l-3.05,36.795L112.95,50.173L73.137,89.87L59.688,76.373z M99.878,124.363H77.556V92.958
		h22.322V124.363z M127.977,124.363h-22.318V73.107h22.318V124.363z M156.083,124.363h-22.319v-72.75h22.319V124.363z"/>
</g>
<g>
</g>
<g>
</g>
<g>
</g>
<g>
</g>
<g>
</g>
<g>
</g>
<g>
</g>
<g>
</g>
<g>
</g>
<g>
</g>
<g>
</g>
<g>
</g>
<g>
</g>
<g>
</g>
<g>
</g>
</svg>
