<svg id="Layer_5" enable-background="new 0 0 64 64" height="512" viewBox="0 0 64 64" width="512" xmlns="http://www.w3.org/2000/svg"><g><path d="m35 33h2v6h-2z"/><path d="m27 37h2v2h-2z"/><path d="m59.501 37.937c-1.619-.935-3.504-1.186-5.312-.699-1.617.433-2.992 1.41-3.935 2.771l-7.254-3.628v-8.763l11.082-5.542c.664.848 1.565 1.469 2.624 1.753.431.116.868.173 1.302.173.866 0 1.721-.228 2.492-.672 1.157-.668 1.984-1.746 2.33-3.036s.168-2.638-.5-3.794-1.746-1.983-3.036-2.329c-1.289-.349-2.637-.168-3.794.499-1.157.668-1.984 1.746-2.33 3.036-.231.861-.208 1.743.018 2.581l-10.188 5.095v-6.382h-10v-4.08c3.387-.488 6-3.401 6-6.92 0-3.859-3.14-7-7-7s-7 3.141-7 7c0 3.519 2.613 6.432 6 6.92v4.08h-10v6.381l-10.188-5.094c.226-.838.249-1.72.018-2.581-.346-1.29-1.173-2.368-2.33-3.036-1.157-.667-2.505-.848-3.794-.499-1.29.346-2.368 1.173-3.036 2.329s-.846 2.504-.5 3.794 1.173 2.368 2.33 3.036c.771.444 1.625.672 2.492.672.435 0 .872-.057 1.302-.173 1.059-.284 1.96-.905 2.623-1.753l11.083 5.541v8.763l-7.255 3.627c-.942-1.361-2.318-2.338-3.935-2.771-1.806-.485-3.692-.236-5.312.699-3.342 1.931-4.492 6.22-2.563 9.563 1.295 2.243 3.652 3.499 6.074 3.499 1.187 0 2.389-.302 3.488-.937 2.923-1.688 4.169-5.181 3.145-8.266l6.358-3.177v6.383h10v8.101c-2.279.465-4 2.484-4 4.899 0 2.757 2.243 5 5 5s5-2.243 5-5c0-2.414-1.721-4.434-4-4.899v-8.101h10v-6.383l6.356 3.178c-1.024 3.086.222 6.578 3.145 8.266 1.1.635 2.302.937 3.488.937 2.421 0 4.779-1.256 6.074-3.499 1.93-3.343.78-7.632-2.562-9.562zm-50.502 7.794c-.957.552-2.18.225-2.732-.732s-.225-2.18.732-2.732 2.18-.224 2.732.732c.552.957.225 2.18-.732 2.732zm21.001-37.731c0-1.105.895-2 2-2s2 .895 2 2-.895 2-2 2-2-.895-2-2zm-5 15h2v2h-2zm14 18h-14v-6h4v-2h4v-2h6zm0-12h-14v-2h14zm0-4h-10v-2h10zm18.733 19.999c-.552.957-1.775 1.284-2.732.732s-1.284-1.775-.732-2.732 1.776-1.284 2.732-.732c.957.552 1.284 1.775.732 2.732z"/><path d="m31 35h2v4h-2z"/></g></svg>