<svg height="512" viewBox="0 0 64 64" width="512" xmlns="http://www.w3.org/2000/svg"><g id="human-arrow-computer-money-finacial"><path d="m61 47a9.991 9.991 0 0 1 -6 9.16v4.84h-8v-4h-4v-4h-4l2-6a10 10 0 0 1 20 0z" fill="#ffc477"/><circle cx="32" cy="17" fill="#ffd422" r="14"/><rect fill="#46f8ff" height="16" rx="2" width="22" x="3" y="37"/><path d="m25 39v12a2.006 2.006 0 0 1 -2 2h-4a2.006 2.006 0 0 0 2-2v-12a2.006 2.006 0 0 0 -2-2h4a2.006 2.006 0 0 1 2 2z" fill="#00d7df"/><path d="m9 57h10v4h-10z" fill="#c6c5ca"/><path d="m15 57h4v4h-4z" fill="#898890"/><path d="m12 53h4v4h-4z" fill="#898890"/><path d="m14 53h2v4h-2z" fill="#57565c"/><path d="m61 47a9.991 9.991 0 0 1 -6 9.16v4.84h-4v-4.84a9.991 9.991 0 0 0 6-9.16 9.833 9.833 0 0 0 -1.62-5.44v-.01a9.993 9.993 0 0 0 -6.37-4.35 9.993 9.993 0 0 1 10.37 4.35v.01a9.833 9.833 0 0 1 1.62 5.44z" fill="#ffa733"/><path d="m46 17a14 14 0 0 1 -14 14 14.6 14.6 0 0 1 -2-.14 14 14 0 0 0 0-27.72 14.6 14.6 0 0 1 2-.14 14 14 0 0 1 14 14z" fill="#ebbf00"/><path d="m51 36a11.017 11.017 0 0 0 -11 10.83l-1.95 5.85a1 1 0 0 0 .14.9.983.983 0 0 0 .81.42h3v3a1 1 0 0 0 1 1h3v3a1 1 0 0 0 1 1h8a1 1 0 0 0 1-1v-4.21a11 11 0 0 0 -5-20.79zm3.6 19.25a1 1 0 0 0 -.6.91v3.84h-6v-3a1 1 0 0 0 -1-1h-3v-3a1 1 0 0 0 -1-1h-2.61l1.56-4.68a1.185 1.185 0 0 0 .05-.32 9 9 0 1 1 12.6 8.25z"/><path d="m23 36h-18a3 3 0 0 0 -3 3v12a3 3 0 0 0 3 3h6v2h-2a1 1 0 0 0 -1 1v4a1 1 0 0 0 1 1h10a1 1 0 0 0 1-1v-4a1 1 0 0 0 -1-1h-2v-2h6a3 3 0 0 0 3-3v-12a3 3 0 0 0 -3-3zm-5 24h-8v-2h8zm-3-4h-2v-2h2zm9-5a1 1 0 0 1 -1 1h-18a1 1 0 0 1 -1-1v-12a1 1 0 0 1 1-1h18a1 1 0 0 1 1 1z"/><path d="m28 52h2v2h-2z"/><path d="m34 52h2v2h-2z"/><path d="m12.293 9.293 1.414 1.414 4-4a1 1 0 0 0 0-1.414l-4-4-1.414 1.414 2.293 2.293h-12.586v2h12.586z"/><path d="m49.414 5 2.293-2.293-1.414-1.414-4 4a1 1 0 0 0 0 1.414l4 4 1.414-1.414-2.293-2.293h12.586v-2z"/><path d="m32 2a15 15 0 1 0 15 15 15.018 15.018 0 0 0 -15-15zm0 28a13 13 0 1 1 13-13 13.012 13.012 0 0 1 -13 13z"/><path d="m50 28v2h-2v2h2v2h2v-2h2v-2h-2v-2z"/><path d="m54 18v2h-2v2h2v2h2v-2h2v-2h-2v-2z"/><path d="m60 9h-2v2h-2v2h2v2h2v-2h2v-2h-2z"/><path d="m14 34v-2h2v-2h-2v-2h-2v2h-2v2h2v2z"/><path d="m10 24v-2h2v-2h-2v-2h-2v2h-2v2h2v2z"/><path d="m4 15h2v-2h2v-2h-2v-2h-2v2h-2v2h2z"/><path d="m32 10a3 3 0 0 1 3 3 1 1 0 0 0 2 0 5.009 5.009 0 0 0 -4-4.9v-1.1a1 1 0 0 0 -2 0v1.1a5 5 0 0 0 1 9.9 3 3 0 1 1 -3 3 1 1 0 0 0 -2 0 5.009 5.009 0 0 0 4 4.9v1.1a1 1 0 0 0 2 0v-1.1a5 5 0 0 0 -1-9.9 3 3 0 0 1 0-6z"/></g></svg>