<svg id="Layer_35" enable-background="new 0 0 64 64" height="512" viewBox="0 0 64 64" width="512" xmlns="http://www.w3.org/2000/svg"><path d="m17 31h6v7h-6z" fill="#838f9b"/><path d="m17 31v7h-6v-4-3z" fill="#838f9b"/><path d="m11 31v3h-2c-1.66 0-3-1.34-3-3v-9c0-4.42 3.58-8 8-8h1.87l-.87 11 2 2 2-2-.88-11h17.59c.16.37.35.73.56 1.07l2.42 3.93h-13.69c-1.1 0-2 .9-2 2v10h-6z" fill="#e6e9ed"/><path d="m18.12 14 .88 11-2 2-2-2 .87-11h1.13z" fill="#fcd770"/><circle cx="17" cy="8" fill="#f0d0b4" r="6"/><path d="m44 46-4-8h-1-1l-4 8h-27v16h32 18v-16z" fill="#d3a06c"/><path d="m57 38 4 8h-4-13l-4-8h4.27 8.05z" fill="#cf9e76"/><path d="m38 38-4 8h-27-4l4-8h4 6 6 6.68z" fill="#cf9e76"/><path d="m35 55v2c0 .55-.45 1-1 1h-6c-.55 0-1-.45-1-1v-2c0-.55.45-1 1-1h6c.55 0 1 .45 1 1z" fill="#e6e9ed"/><path d="m52.32 38h-8.05l4.33-5.29c1.68 1.38 2.99 3.2 3.72 5.29z" fill="#b4dd7f"/><path d="m48.6 32.71-4.33 5.29h-4.27-1-1-8.32c1.65-4.66 6.1-8 11.32-8 2.88 0 5.53 1.02 7.6 2.71z" fill="#fcd770"/><path d="m35.71 14c-.47-1.08-.71-2.24-.71-3.43 0-4.73 3.84-8.57 8.57-8.57h.86c2.37 0 4.51.96 6.06 2.51s2.51 3.69 2.51 6.06c0 1.59-.44 3.15-1.27 4.5l-6.21 10.08c-.32.53-.9.85-1.52.85s-1.2-.32-1.52-.85l-3.79-6.15-2.42-3.93c-.21-.34-.4-.7-.56-1.07z" fill="#ff826e"/><circle cx="44" cy="11" fill="#e6e9ed" r="5"/><path d="m62.618 47-5-10h-4.624c-2.007-4.811-6.735-8-11.994-8s-9.987 3.189-11.994 8h-5.006v-16c0-.552.448-1 1-1h13.133l3.491 5.673c.505.818 1.415 1.327 2.376 1.327s1.871-.509 2.376-1.327l6.204-10.082c.929-1.51 1.42-3.245 1.42-5.018 0-5.278-4.295-9.573-9.573-9.573h-.854c-5.278 0-9.573 4.295-9.573 9.573 0 .824.117 1.638.324 2.427h-12.435c1.301-1.272 2.111-3.042 2.111-5 0-3.859-3.141-7-7-7s-7 3.141-7 7c0 2.047.889 3.886 2.294 5.167-4.149.8-7.294 4.454-7.294 8.833v9c0 2.206 1.794 4 4 4h1v2h-3.618l-5 10h4.618v16h52v-16zm-3.236-2h-14.764l-3-6h14.764zm-8.588-8h-4.411l2.325-2.842c.835.819 1.541 1.776 2.086 2.842zm-9.794-6c2.247 0 4.377.692 6.157 1.895l-3.359 4.105h-12.592c1.86-3.638 5.63-6 9.794-6zm-23 6v-5h4v5zm25.573-34h.854c4.176 0 7.573 3.397 7.573 7.573 0 1.402-.389 2.775-1.123 3.969l-6.204 10.082c-.285.463-1.061.463-1.346 0l-6.204-10.082c-.734-1.193-1.123-2.566-1.123-3.969 0-4.176 3.397-7.573 7.573-7.573zm-25.606 21.619-.967.967-.967-.967.766-9.619h.402zm-5.967-16.619c0-2.757 2.243-5 5-5s5 2.243 5 5-2.243 5-5 5-5-2.243-5-5zm-3 25c-1.103 0-2-.897-2-2v-9c0-3.859 3.141-7 7-7h.792l-.825 10.381 3.033 3.033 3.033-3.033-.825-10.381h15.902c.103.197.192.401.309.591l1.483 2.409h-11.902c-1.654 0-3 1.346-3 3v9h-10v-10h-2v13zm3-1h4v5h-4zm-4.382 7h28.764l-3 6h-28.764zm.382 8h26.618l3.382-6.764v20.764h-30zm48 14h-16v-20.764l3.382 6.764h12.618z"/><path d="m44 17c3.309 0 6-2.691 6-6s-2.691-6-6-6-6 2.691-6 6 2.691 6 6 6zm0-10c2.206 0 4 1.794 4 4s-1.794 4-4 4-4-1.794-4-4 1.794-4 4-4z"/><path d="m41 33h2v2h-2z"/><path d="m37 33h2v2h-2z"/><path d="m52 57h2v2h-2z"/><path d="m48 57h2v2h-2z"/><path d="m44 57h2v2h-2z"/><path d="m34 53h-6c-1.103 0-2 .897-2 2v2c0 1.103.897 2 2 2h6c1.103 0 2-.897 2-2v-2c0-1.103-.897-2-2-2zm0 4h-6l-.002-2h.002 6z"/><path d="m9 41h2v2h-2z"/><path d="m13 41h2v2h-2z"/><path d="m17 41h2v2h-2z"/></svg>