<svg id="Capa_1" enable-background="new 0 0 511.996 511.996" height="512" viewBox="0 0 511.996 511.996" width="512" xmlns="http://www.w3.org/2000/svg"><g><g><path d="m413.24 224.928c0-85.062-68.379-154.154-153.168-155.304-85.497-1.16-157.275 69.44-157.469 154.944-.152 67.171 42.335 124.438 101.913 146.253 8.73 3.197 14.577 11.448 14.577 20.745v19.742h77.656v-19.742c0-9.298 5.849-17.549 14.581-20.747 59.469-21.775 101.91-78.877 101.91-145.891z" fill="#fee07d"/><path d="m244.516 370.822c-59.578-21.815-102.065-79.083-101.913-146.254.177-78.071 60.032-143.715 135.519-153.657-5.919-.769-11.942-1.205-18.05-1.288-85.497-1.16-157.275 69.44-157.469 154.944-.152 67.171 42.335 124.438 101.913 146.254 8.73 3.197 14.578 11.448 14.578 20.745v19.742h40v-19.742c0-9.296-5.848-17.548-14.578-20.744z" fill="#ffcf64"/><path d="m377.626 242.105v-32.139l-27.08-6.989c-2.315-9.328-5.992-18.116-10.824-26.133l14.206-24.089-22.726-22.726-24.089 14.206c-8.018-4.832-16.806-8.509-26.134-10.824l-6.988-27.08h-32.14l-6.988 27.08c-9.328 2.315-18.116 5.992-26.134 10.824l-24.089-14.206-22.726 22.726 14.206 24.089c-4.832 8.018-8.509 16.805-10.824 26.133l-27.08 6.989v32.139l27.08 6.988c2.315 9.328 5.992 18.116 10.824 26.133l-14.206 24.089 22.726 22.726 24.089-14.206c8.018 4.832 16.806 8.509 26.134 10.824l6.988 27.08h32.14l6.988-27.08c9.328-2.315 18.116-5.992 26.134-10.824l24.089 14.206 22.726-22.726-14.206-24.089c4.832-8.018 8.509-16.806 10.824-26.133z" fill="#857e87"/><circle cx="257.921" cy="227.098" fill="#fee07d" r="66.589"/><path d="m304.515 442.372h-93.187c-8.578 0-15.531-6.954-15.531-15.531 0-8.578 6.954-15.531 15.531-15.531h93.187c8.578 0 15.531 6.954 15.531 15.531 0 8.577-6.954 15.531-15.531 15.531z" fill="#e8e8e8"/><path d="m231.328 431.309h88.065c.424-1.415.653-2.915.653-4.469 0-8.578-6.953-15.531-15.531-15.531h-93.187c-8.578 0-15.531 6.953-15.531 15.531 0 8.578 6.953 15.531 15.531 15.531h5.122c1.919-6.399 7.854-11.062 14.878-11.062z" fill="#dcdbdd"/><path d="m304.515 473.434h-93.187c-8.578 0-15.531-6.954-15.531-15.531 0-8.578 6.954-15.531 15.531-15.531h93.187c8.578 0 15.531 6.954 15.531 15.531 0 8.578-6.954 15.531-15.531 15.531z" fill="#e8e8e8"/><path d="m231.328 462.372h88.065c.424-1.415.653-2.915.653-4.469 0-8.578-6.953-15.531-15.531-15.531h-93.187c-8.578 0-15.531 6.954-15.531 15.531 0 8.578 6.953 15.531 15.531 15.531h5.122c1.919-6.399 7.854-11.062 14.878-11.062z" fill="#dcdbdd"/><path d="m297.515 504.527h-79.187c-3.866 0-7-3.134-7-7v-24.093h93.187v24.093c0 3.866-3.134 7-7 7z" fill="#857e87"/><path d="m242.421 493.435h62.094v-20h-93.187v24.093c0 3.866 3.134 7 7 7h13c0-6.127 4.966-11.093 11.093-11.093z" fill="#6f6571"/></g><g><path d="m359.232 147.451-22.726-22.726c-2.42-2.418-6.167-2.895-9.113-1.156l-20.337 11.992c-6.323-3.44-12.989-6.2-19.903-8.243l-5.9-22.861c-.854-3.312-3.842-5.626-7.262-5.626h-32.139c-3.42 0-6.407 2.314-7.262 5.626l-5.899 22.861c-6.915 2.043-13.58 4.804-19.904 8.243l-20.336-11.992c-2.946-1.737-6.694-1.263-9.113 1.156l-22.726 22.726c-2.418 2.419-2.895 6.168-1.157 9.113l11.993 20.336c-3.44 6.325-6.201 12.991-8.243 19.904l-22.861 5.899c-3.312.854-5.626 3.842-5.626 7.262v32.14c0 3.42 2.314 6.407 5.626 7.262l22.861 5.899c2.042 6.913 4.803 13.579 8.243 19.904l-11.993 20.336c-1.737 2.946-1.261 6.694 1.157 9.113l22.726 22.726c2.418 2.419 6.167 2.895 9.113 1.156l20.336-11.992c6.324 3.439 12.989 6.2 19.904 8.243l5.899 22.861c.855 3.312 3.842 5.626 7.262 5.626h32.139c3.42 0 6.407-2.314 7.262-5.626l5.9-22.861c6.914-2.043 13.58-4.803 19.903-8.243l20.337 11.992c2.946 1.738 6.695 1.261 9.113-1.156l22.726-22.726c2.418-2.419 2.894-6.167 1.156-9.113l-11.992-20.336c3.44-6.325 6.2-12.99 8.242-19.904l22.861-5.899c3.312-.854 5.626-3.842 5.626-7.262v-32.14c0-3.42-2.314-6.407-5.626-7.262l-22.861-5.899c-2.042-6.914-4.802-13.579-8.242-19.904l11.992-20.336c1.737-2.946 1.262-6.694-1.156-9.113zm-10.561 62.788 21.454 5.537v20.519l-21.454 5.537c-2.667.688-4.742 2.782-5.405 5.456-2.106 8.491-5.46 16.589-9.968 24.068-1.422 2.359-1.436 5.309-.036 7.681l11.254 19.084-14.509 14.509-19.085-11.254c-2.373-1.399-5.322-1.385-7.681.036-7.478 4.507-15.575 7.86-24.069 9.969-2.673.664-4.768 2.738-5.455 5.405l-5.537 21.454h-20.519l-5.536-21.454c-.688-2.667-2.782-4.741-5.455-5.405-8.494-2.108-16.592-5.462-24.069-9.969-2.359-1.421-5.309-1.435-7.681-.036l-19.085 11.254-14.509-14.509 11.255-19.084c1.399-2.372 1.386-5.321-.036-7.681-4.508-7.48-7.862-15.578-9.969-24.069-.664-2.673-2.738-4.768-5.405-5.455l-21.454-5.537v-20.519l21.454-5.537c2.667-.688 4.742-2.782 5.405-5.455 2.107-8.491 5.461-16.589 9.969-24.069 1.422-2.359 1.436-5.309.036-7.681l-11.255-19.084 14.509-14.509 19.085 11.254c2.373 1.399 5.321 1.385 7.681-.036 7.477-4.507 15.575-7.86 24.069-9.969 2.673-.664 4.767-2.738 5.455-5.405l5.536-21.454h20.519l5.537 21.454c.688 2.667 2.782 4.741 5.455 5.405 8.494 2.108 16.592 5.462 24.069 9.969 2.359 1.42 5.308 1.436 7.681.036l19.085-11.254 14.509 14.509-11.254 19.084c-1.399 2.372-1.386 5.321.036 7.681 4.508 7.479 7.861 15.577 9.968 24.068.663 2.674 2.738 4.769 5.405 5.456z"/><path d="m257.921 176.268c-4.142 0-7.5 3.357-7.5 7.5v7.822c-10.293 1.715-18.164 10.682-18.164 21.454 0 11.993 9.757 21.75 21.75 21.75h7.828c3.722 0 6.75 3.028 6.75 6.75s-3.028 6.75-6.75 6.75h-8.829c-2.392 0-4.46-1.539-5.148-3.83-1.19-3.968-5.37-6.219-9.339-5.028-3.967 1.19-6.219 5.371-5.028 9.339 2.354 7.847 8.984 13.367 16.93 14.359v7.687c0 4.143 3.358 7.5 7.5 7.5 4.143 0 7.5-3.357 7.5-7.5v-7.822c10.293-1.714 18.164-10.682 18.164-21.454 0-11.993-9.757-21.75-21.75-21.75h-7.828c-3.722 0-6.75-3.028-6.75-6.75s3.028-6.75 6.75-6.75h6.993c2.392 0 4.461 1.539 5.148 3.83 1.19 3.969 5.374 6.221 9.339 5.028 3.968-1.19 6.219-5.371 5.028-9.339-2.17-7.234-7.975-12.491-15.095-14.045v-8.001c.001-4.143-3.356-7.5-7.499-7.5z"/><path d="m366.767 103.837c-3.082-2.771-7.823-2.518-10.592.561-2.771 3.08-2.519 7.822.561 10.592 31.142 28.01 49.004 68.081 49.004 109.938 0 63.3-39.862 117.932-96.989 138.85-11.664 4.271-19.501 15.439-19.501 27.79v12.242h-62.656v-12.242c0-12.351-7.836-23.518-19.499-27.789-57.334-20.993-97.136-75.863-96.992-139.193.185-81.233 68.232-148.547 149.867-147.462 23.137.314 45.228 5.82 65.658 16.367 3.68 1.9 8.204.458 10.104-3.224 1.9-3.681.457-8.205-3.224-10.104-22.516-11.623-46.854-17.691-72.336-18.037-89.19-1.276-164.866 72.165-165.07 162.427-.158 69.718 43.639 130.173 106.834 153.313 5.776 2.115 9.657 7.622 9.657 13.703v12.242h-.266c-12.7 0-23.031 10.332-23.031 23.031 0 5.971 2.285 11.419 6.025 15.515-3.741 4.097-6.025 9.544-6.025 15.516 0 10.075 6.503 18.659 15.531 21.777v17.847c0 7.995 6.505 14.5 14.5 14.5h79.187c7.995 0 14.5-6.505 14.5-14.5v-17.847c9.028-3.118 15.53-11.703 15.53-21.777 0-5.971-2.284-11.419-6.025-15.516 3.741-4.096 6.025-9.544 6.025-15.515 0-12.699-10.331-23.031-23.03-23.031h-.266v-12.242c0-6.081 3.882-11.589 9.659-13.704 62.918-23.041 106.831-83.197 106.831-152.936.002-46.105-19.67-90.241-53.971-121.092zm-69.752 393.159h-78.187v-16.093h78.187zm15.53-70.155c0 4.225-3.281 7.699-7.428 8.008-.2-.005-.401-.008-.602-.008-.227 0-.451.011-.672.03h-42.26c-4.142 0-7.5 3.357-7.5 7.5s3.358 7.5 7.5 7.5h42.932c.201 0 .402-.003.602-.008 4.148.309 7.428 3.783 7.428 8.009 0 4.429-3.603 8.031-8.03 8.031h-93.187c-4.428 0-8.031-3.603-8.031-8.031 0-4.226 3.281-7.7 7.429-8.009.2.005.401.008.602.008h17.569c4.142 0 7.5-3.357 7.5-7.5s-3.358-7.5-7.5-7.5h-16.897c-.221-.02-.445-.03-.672-.03-.201 0-.402.003-.602.008-4.148-.309-7.429-3.783-7.429-8.008 0-4.429 3.603-8.031 8.031-8.031h93.187c4.428 0 8.03 3.602 8.03 8.031z"/><path d="m257.921 46.063c4.143 0 7.5-3.357 7.5-7.5v-31.063c0-4.143-3.357-7.5-7.5-7.5-4.142 0-7.5 3.357-7.5 7.5v31.063c0 4.142 3.358 7.5 7.5 7.5z"/><path d="m471.51 217.436h-31.063c-4.143 0-7.5 3.357-7.5 7.5s3.357 7.5 7.5 7.5h31.063c4.143 0 7.5-3.357 7.5-7.5s-3.357-7.5-7.5-7.5z"/><path d="m71.548 217.436h-31.062c-4.142 0-7.5 3.357-7.5 7.5s3.358 7.5 7.5 7.5h31.062c4.142 0 7.5-3.357 7.5-7.5s-3.358-7.5-7.5-7.5z"/><path d="m414.582 57.593-31.063 31.062c-2.929 2.93-2.929 7.678 0 10.607 2.931 2.929 7.678 2.928 10.607 0l31.063-31.062c2.929-2.93 2.929-7.678 0-10.607-2.93-2.927-7.678-2.929-10.607 0z"/><path d="m131.634 99.262c2.929-2.93 2.929-7.678 0-10.607l-31.062-31.062c-2.929-2.928-7.678-2.928-10.606 0-2.929 2.93-2.929 7.678 0 10.607l31.062 31.062c2.93 2.929 7.677 2.928 10.606 0z"/><path d="m257.921 153.009c-34.099 0-63.663 23.081-71.895 56.129-1.001 4.02 1.446 8.089 5.465 9.09 4.018 1.008 8.089-1.445 9.09-5.465 6.563-26.351 30.142-44.754 57.339-44.754 32.582 0 59.089 26.507 59.089 59.089s-26.507 59.089-59.089 59.089c-27.026 0-50.569-18.261-57.252-44.406-1.026-4.014-5.112-6.437-9.124-5.409-4.013 1.026-6.435 5.111-5.409 9.124 8.382 32.79 37.901 55.691 71.785 55.691 40.853 0 74.089-33.236 74.089-74.089s-33.235-74.089-74.088-74.089z"/></g></g></svg>