<svg id="Capa_1" enable-background="new 0 0 512 512" height="512" viewBox="0 0 512 512" width="512" xmlns="http://www.w3.org/2000/svg"><g><path d="m0 352c0 24.813 20.187 45 45 45h422c24.813 0 45-20.187 45-45v-27h-512z"/><path d="m396 482h-32.791l-4.262-5.327c-11.685-14.606-19.961-31.638-24.341-49.673h-157.213c-4.379 18.035-12.655 35.067-24.341 49.673l-4.261 5.327h-32.791c-8.284 0-15 6.716-15 15s6.716 15 15 15h280c8.284 0 15-6.716 15-15s-6.716-15-15-15z"/><circle cx="126" cy="190" r="25"/><path d="m81 290v5h90v-5c0-24.813-20.187-45-45-45s-45 20.187-45 45z"/><path d="m227.431 95h18.569c8.284 0 15 6.716 15 15v115h170v-150h-179.569zm78.569 10h80c8.284 0 15 6.716 15 15s-6.716 15-15 15h-80c-8.284 0-15-6.716-15-15s6.716-15 15-15zm0 60h80c8.284 0 15 6.716 15 15s-6.716 15-15 15h-80c-8.284 0-15-6.716-15-15s6.716-15 15-15z"/><path d="m467 0h-422c-24.813 0-45 20.187-45 45v250h51v-5c0-26.383 13.705-49.61 34.358-62.983-8.915-9.779-14.358-22.774-14.358-37.017 0-30.327 24.673-55 55-55s55 24.673 55 55c0 14.243-5.443 27.238-14.358 37.017 20.653 13.373 34.358 36.6 34.358 62.983v5h311v-250c0-24.813-20.187-45-45-45zm-6 240c0 8.284-6.716 15-15 15h-200c-8.284 0-15-6.716-15-15v-115h-45c-6.315 0-11.954-3.955-14.104-9.894s-.35-12.587 4.501-16.63l60-50c2.696-2.246 6.094-3.476 9.603-3.476h200c8.284 0 15 6.716 15 15z"/></g></svg>